<svg xmlns="http://www.w3.org/2000/svg" xmlns:svgjs="http://svgjs.com/svgjs" xmlns:xlink="http://www.w3.org/1999/xlink" width="288" height="288"><svg xmlns="http://www.w3.org/2000/svg" width="288" height="288" enable-background="new 0 0 495 495" viewBox="0 0 495 495"><polygon points="247.5 0 247.5 40 455 40 455 455 247.5 455 247.5 495 495 495 495 0" class="color1e81ce svgShape"/><polygon points="40 455 40 40 247.5 40 247.5 0 0 0 0 495 247.5 495 247.5 455" class="color3d9ae2 svgShape"/><path d="M127.323 167.186h.446c23.551 0 38.194-15.601 38.194-35.101-.442-19.928-14.643-35.087-37.752-35.087C105.107 96.998 90 112.157 90 132.085 90 151.585 104.678 167.186 127.323 167.186zM266.4 398.002V284.576c0-6.086.464-12.119 2.24-16.459 4.887-12.149 15.978-24.693 34.641-24.693 24.439 0 34.195 18.629 34.195 45.92v108.657H405V281.535c0-62.379-33.307-91.398-77.744-91.398-35.871 0-51.883 19.74-60.856 33.547v.665h-.442c.118-.219.306-.442.442-.665v-28.779h-67.537c.905 19.053 0 203.096 0 203.096H266.4z" class="color3d9ae2 svgShape"/><rect width="67.506" height="203.096" x="94.016" y="194.906" class="color3d9ae2 svgShape"/></svg></svg>