<svg width="110" height="24" viewBox="0 0 110 24" fill="none" xmlns="http://www.w3.org/2000/svg">
<path d="M2.23169 4.45329L0 4.12761V2.39062H15.0231L15.2952 7.33017H13.118L12.0838 4.34473L6.25962 4.01905V11.7269L10.342 11.6183L10.8319 9.22999H12.5737V16.1236H10.8863L10.342 13.681L6.25962 13.6267V20.6832L10.3964 20.9546V22.583H0.163294V20.9546L2.23169 20.6832V4.45329Z" fill="#132F40"/>
<path d="M19.3774 14.6036C21.0648 13.7894 23.1876 13.3552 25.8003 13.3552V12.7038C25.8003 11.9439 25.7459 11.401 25.5826 10.9668C25.4193 10.5326 25.1471 10.2612 24.7661 10.044C24.3306 9.82691 23.7863 9.71835 22.9699 9.71835C22.099 9.71835 21.2825 9.82691 20.5749 10.044C19.8673 10.2612 19.1052 10.5868 18.3432 10.9125L17.5267 9.17554C17.7989 8.95842 18.2343 8.63273 18.8875 8.30705C19.5407 7.98137 20.3027 7.70996 21.1736 7.43856C22.0445 7.16716 22.9699 7.05859 23.8952 7.05859C25.3104 7.05859 26.399 7.22144 27.1611 7.6014C27.9776 7.98137 28.5219 8.52417 28.8485 9.33838C29.175 10.1526 29.3928 11.1839 29.3928 12.5409V20.8459H30.8624V22.3657C30.4814 22.4743 29.9915 22.5286 29.2839 22.6371C28.6852 22.8543 28.0864 22.8543 27.5421 22.8543C26.9434 22.8543 26.5079 22.7457 26.2902 22.5829C26.0725 22.42 25.9636 22.0401 25.9636 21.4973V20.7916C25.4737 21.3344 24.8205 21.8229 24.0585 22.2572C23.2964 22.6914 22.4255 22.9086 21.3913 22.9086C20.5749 22.9086 19.8128 22.7457 19.1052 22.3657C18.3976 21.9858 17.8533 21.4973 17.4178 20.7916C17.0913 20.1402 16.8735 19.326 16.8735 18.349C16.8735 16.7206 17.69 15.4721 19.3774 14.6036ZM24.4939 20.3031C24.9838 20.086 25.4193 19.8146 25.8003 19.4889V15.0379C24.1674 15.0379 22.9699 15.3093 22.1534 15.8521C21.3369 16.3949 20.9559 17.1005 20.9559 17.969C20.9559 18.8375 21.1736 19.4889 21.5546 19.9774C21.9357 20.4659 22.5344 20.683 23.242 20.683C23.5686 20.6288 24.0041 20.5202 24.4939 20.3031Z" fill="#132F40"/>
<path d="M32.5502 20.9553L34.0743 20.6839V10.0991L32.3325 9.6106V7.71078L36.8503 7.16797L37.1769 7.38509L37.6124 8.25358V9.39348C38.2111 8.79639 39.082 8.30786 40.1707 7.87362C41.2593 7.43937 42.239 7.22225 43.0555 7.22225C44.0353 7.22225 44.8518 7.38509 45.4505 7.71078C46.0492 8.03646 46.5391 8.52499 46.8113 9.23063C47.41 8.68783 48.1721 8.1993 49.1518 7.81934C50.1316 7.43937 51.1114 7.22225 52.0367 7.22225C53.6697 7.22225 54.8127 7.71078 55.4659 8.63355C56.1191 9.55632 56.5001 11.1305 56.5001 13.2474V20.6839L58.2963 20.9553V22.5837H51.2202V20.9553L52.6355 20.6839V13.356C52.6355 11.9447 52.4722 10.9676 52.1456 10.3705C51.819 9.82772 51.1658 9.50204 50.2405 9.50204C49.7506 9.50204 49.2063 9.6106 48.662 9.82772C48.1176 10.0448 47.6278 10.3162 47.2467 10.6419C47.3556 11.3476 47.41 12.2161 47.41 13.2474V20.6839L49.0974 20.9553V22.5837H42.0213V20.9553L43.5454 20.6839V13.2474C43.5454 12.3246 43.491 11.5647 43.3821 11.0219C43.2732 10.4791 43.0555 10.0991 42.7289 9.882C42.4023 9.6106 41.9125 9.50204 41.3137 9.50204C40.715 9.50204 40.1706 9.6106 39.5719 9.882C39.0276 10.1534 38.4833 10.4791 38.0478 10.8048V20.6839L39.6263 20.9553V22.5837H32.5502V20.9553Z" fill="#132F40"/>
<path d="M62.3241 14.6036C64.0115 13.7894 66.1343 13.3552 68.7471 13.3552V12.7038C68.7471 11.9439 68.6926 11.401 68.5293 10.9668C68.366 10.5326 68.0939 10.2612 67.7129 10.044C67.2774 9.82691 66.7331 9.71835 65.9166 9.71835C65.0457 9.71835 64.2292 9.82691 63.5216 10.044C62.814 10.2612 62.052 10.5868 61.2899 10.9125L60.4735 9.17554C60.7456 8.95842 61.1811 8.63273 61.8343 8.30705C62.4874 7.98137 63.2495 7.70996 64.1204 7.43856C64.9913 7.16716 65.9166 7.05859 66.842 7.05859C68.2572 7.05859 69.3458 7.22144 70.1078 7.6014C70.9243 7.98137 71.4686 8.52417 71.7952 9.33838C72.1218 10.1526 72.3395 11.1839 72.3395 12.5409V20.8459H73.8092V22.3657C73.4282 22.4743 72.9383 22.5286 72.2307 22.6371C71.5775 22.7457 70.9787 22.8 70.4344 22.8C69.8357 22.8 69.4002 22.6914 69.1825 22.5286C68.9648 22.3657 68.8559 21.9858 68.8559 21.443V20.7373C68.366 21.2801 67.7129 21.7687 66.9508 22.2029C66.1888 22.6371 65.3179 22.8543 64.2837 22.8543C63.4672 22.8543 62.7052 22.6914 61.9976 22.3115C61.2899 21.9315 60.7456 21.443 60.3102 20.7373C59.8747 20.0317 59.7114 19.2175 59.7114 18.2947C59.8203 16.7206 60.6912 15.4721 62.3241 14.6036ZM67.4951 20.3031C67.985 20.086 68.4205 19.8146 68.8015 19.4889V15.0379C67.1685 15.0379 65.9711 15.3093 65.1546 15.8521C64.3381 16.3949 63.9571 17.1005 63.9571 17.969C63.9571 18.8375 64.1748 19.4889 64.5558 19.9774C64.9369 20.4659 65.5356 20.683 66.2432 20.683C66.5698 20.6288 67.0053 20.5202 67.4951 20.3031Z" fill="#132F40"/>
<path d="M78.5445 20.3578C78.7078 20.5749 79.0344 20.792 79.5243 20.9549C80.0686 21.1177 80.5585 21.2263 81.1028 21.2263C81.9737 21.2263 82.5725 21.0634 83.0079 20.6835C83.4434 20.3035 83.6611 19.8692 83.6611 19.2722C83.6611 18.6751 83.3889 18.1865 82.8446 17.8066C82.3003 17.4266 81.4294 16.9924 80.1775 16.4496L79.4154 16.1239C78.1635 15.5811 77.2382 14.984 76.585 14.2241C75.9863 13.4641 75.6597 12.5413 75.6597 11.3472C75.6597 10.533 75.8774 9.82732 76.4217 9.17595C76.9116 8.52458 77.6192 8.03605 78.4901 7.65609C79.361 7.27612 80.3952 7.11328 81.5383 7.11328C82.4092 7.11328 83.1168 7.16756 83.7155 7.27612C84.3143 7.38468 84.9674 7.54753 85.6206 7.71037C86.0016 7.81893 86.2738 7.92749 86.4371 7.92749V11.51H84.2598L83.6611 9.44735C83.5522 9.28451 83.3345 9.12167 82.899 8.95882C82.4636 8.79598 82.1914 8.7417 81.7016 8.7417C80.9395 8.7417 80.3408 8.90454 79.9053 9.23023C79.4699 9.55591 79.2521 9.99016 79.2521 10.533C79.2521 11.0215 79.4154 11.4557 79.742 11.7814C80.0686 12.1071 80.3952 12.3785 80.7218 12.5413C81.1028 12.7042 81.756 13.0299 82.7358 13.4641C83.7155 13.8984 84.532 14.2783 85.1852 14.6583C85.8383 15.0383 86.3827 15.5268 86.7637 16.1239C87.1991 16.721 87.4169 17.4809 87.4169 18.3494C87.4169 19.7064 86.8725 20.792 85.8383 21.6062C84.8041 22.4204 83.2801 22.8547 81.2661 22.8547C80.3408 22.8547 79.5243 22.8004 78.7623 22.5833C78.0002 22.4204 77.1837 22.2033 76.204 21.9319L75.6597 21.7691V18.1865H77.8914L78.5445 20.3578Z" fill="#132F40"/>
<path d="M91.4447 10.0983L89.5396 9.55552V7.76425L94.4928 7.16717H94.5473L95.3093 7.70997V20.7373L97.16 20.9545V22.5829H89.5396V20.9545L91.4447 20.6831V10.0983ZM91.3358 4.45313C90.9548 4.07317 90.737 3.58464 90.737 2.98755C90.737 2.2819 90.9548 1.7391 91.3902 1.25057C91.8257 0.816325 92.4244 0.544922 93.132 0.544922C93.8396 0.544922 94.384 0.762045 94.765 1.14201C95.146 1.52197 95.3093 2.0105 95.3093 2.60759C95.3093 3.31324 95.0916 3.91032 94.6561 4.34457C94.2207 4.77881 93.6219 4.99594 92.8054 4.99594C92.2611 5.05022 91.7168 4.8331 91.3358 4.45313Z" fill="#132F40"/>
<path d="M100.208 22.2571C99.7727 21.8771 99.6094 21.3886 99.6094 20.7915C99.6094 20.1401 99.8271 19.5973 100.317 19.1631C100.807 18.7288 101.406 18.5117 102.059 18.5117C102.712 18.5117 103.202 18.7288 103.637 19.1088C104.073 19.4888 104.182 19.9773 104.182 20.5744C104.182 21.28 103.964 21.8228 103.474 22.2571C102.984 22.6913 102.385 22.8542 101.678 22.8542C101.133 22.8542 100.644 22.6371 100.208 22.2571Z" fill="#132F40"/>
</svg>
